<?xml version="1.0" encoding="utf-8"?>
<!-- Generator: Adobe Illustrator 24.1.1, SVG Export Plug-In . SVG Version: 6.00 Build 0)  -->
<svg version="1.1" id="Layer_1" xmlns="http://www.w3.org/2000/svg" xmlns:xlink="http://www.w3.org/1999/xlink" x="0px" y="0px"
	 viewBox="0 0 500 102.1" style="enable-background:new 0 0 500 102.1;" xml:space="preserve">
<style type="text/css">
	.st0{fill-rule:evenodd;clip-rule:evenodd;fill:#FF6D2C;}
	.st1{fill-rule:evenodd;clip-rule:evenodd;fill:#0088C0;}
</style>
<g>
	<polygon class="st0" points="77.4,35.1 93.1,8.2 137.9,95.3 108.4,95.3 	"/>
	<polygon class="st1" points="89.3,69.8 47.3,69.6 65,35.1 49.4,8.2 4.6,95.3 34.1,95.3 102.5,95.3 	"/>
	<polygon class="st0" points="113.8,35.1 129.5,8.2 174.3,95.3 144.8,95.3 	"/>
	<g>
		<path d="M207.3,7.3h5.7V39h10.9v5.3h-16.6V7.3z"/>
		<path d="M249.6,7.3v5.3h-14.8V22h14.3v5.3h-14.3V39h14.8v5.3h-20.5V7.3H249.6z"/>
		<path d="M282.6,44.4l-3.9-8.9h-15.8l-4.1,8.9h-6.1l18.5-39.2l17.6,39.2H282.6z M265.2,30.1h11.2L271,17.5L265.2,30.1z"/>
		<path d="M299.1,44.4h-5.7V4.8L320.3,33V7.3h5.7v39.4l-26.9-28.2V44.4z"/>
		<path d="M211.9,95.1h-5.8l7.8-39.9L226.8,84l13-28.8l7,39.9H241l-3.8-22.3l-10.8,24.1l-10.7-24.1L211.9,95.1z"/>
		<path d="M280.3,95.1l-3.9-8.9h-15.8l-4.1,8.9h-6.1l18.5-39.2l17.6,39.2H280.3z M262.9,80.8h11.2l-5.5-12.6L262.9,80.8z"/>
		<path d="M291.1,58h6.6c4.4,0,7.6,0.7,9.8,2.2c2.9,2,4.4,4.9,4.4,8.7c0,2.6-0.8,4.9-2.3,6.7c-1.5,1.9-3.5,3.1-6,3.6l11.6,15.8h-6.8
			l-10.6-15.2h-1v15.2h-5.7V58z M296.7,63.2V75h1.8c0.5,0,1,0,1.4-0.1c0.5,0,1.1-0.2,2-0.4c0.8-0.2,1.6-0.5,2.2-0.9
			c0.6-0.4,1.1-1,1.6-1.8c0.5-0.8,0.7-1.8,0.7-2.9c0-3.8-2.6-5.7-7.7-5.7H296.7z"/>
		<path d="M326.4,58v14.8L340.8,58h7.4l-16.7,16.8l16.8,20.3h-7.6l-13.2-16.5l-1.1,1.1v15.3h-5.7V58H326.4z"/>
		<path d="M373.8,58v5.3H359v9.4h14.3v5.3H359v11.7h14.8v5.3h-20.5V58H373.8z"/>
		<path d="M399.9,63.3h-8.5v31.7h-5.7V63.3h-8.5V58h22.7V63.3z"/>
		<path d="M404.9,58h5.7v37.1h-5.7V58z"/>
		<path d="M425.1,95.1h-5.7V55.5l26.9,28.2V58h5.7v39.4l-26.9-28.2V95.1z"/>
		<path d="M480.1,81v-5.2h15.3v0.3c0,6.4-1.8,11.5-5.5,15c-3.3,3.1-7.5,4.7-12.6,4.7c-5.2,0-9.4-1.7-12.6-5.1
			c-3.7-3.8-5.5-8.4-5.5-14c0-2.8,0.5-5.4,1.5-7.8c1-2.4,2.3-4.4,3.9-6c1.7-1.7,3.7-3,6.1-4c2.4-1,5-1.5,7.8-1.5
			c3.7,0,6.9,0.8,9.7,2.3c2.6,1.4,4.6,3.3,6,5.6l-4.5,3.2c-1.3-1.9-2.9-3.3-4.6-4.2c-1.8-1.1-4-1.6-6.6-1.6c-4,0-7.2,1.3-9.8,3.8
			c-1.2,1.2-2.2,2.8-2.9,4.6c-0.7,1.9-1.1,3.8-1.1,5.8c0,4,1.3,7.3,3.8,10.1c2.3,2.5,5.4,3.7,9.3,3.7c3.3,0,6.1-1.1,8.3-3.3
			c1.8-1.8,2.9-3.9,3.1-6.3H480.1z"/>
	</g>
</g>
</svg>
