<svg xmlns="http://www.w3.org/2000/svg" fill="none" viewBox="0 0 546 353">
  <path fill="#28B2DC" d="M545.37 352.73 272.68 45.38 0 352.73h545.37Z" opacity=".24"/>
  <path fill="#005375" d="M272.68 331.22c70.041 0 126.82-2.171 126.82-4.85s-56.779-4.85-126.82-4.85-126.82 2.171-126.82 4.85 56.779 4.85 126.82 4.85Z"/>
  <path fill="#fff" stroke="#005375" stroke-linecap="round" stroke-linejoin="round" d="M384.8 1v306.44H160.57V1H384.8Z"/>
  <path fill="#DEFFDF" d="M370.91 200.48H174.46v89.81h196.45v-89.81Z"/>
  <path fill="#FFF4DE" d="M370.6 109.25H174.15v89.81H370.6v-89.81Z"/>
  <path fill="#FFD8D7" d="M370.91 18.15H174.46v89.81h196.45V18.15Z"/>
  <path stroke="#FFCF64" stroke-linecap="round" stroke-linejoin="round" stroke-width="2" d="M248.74 110.4h-61.6v90.85h61.6V110.4Z"/>
  <path stroke="#FFCF64" stroke-linecap="round" stroke-linejoin="round" stroke-width="2" d="M310.34 110.4h-61.6v90.85h61.6V110.4Zm61.6 0h-61.6v90.85h61.6V110.4Zm-112.1 28.11h39.4m-39.4 14.45h39.4m-39.4 5.34h39.4m-39.4 5.35h39.4m-39.4 5.34h39.4m-39.4 5.34h39.4m-39.4 5.35h39.4m-39.4 5.34h39.4m-39.4 5.35h39.4m22.19-51.86h39.41m-39.41 14.45h39.41m-39.41 5.34h39.41m-39.41 5.35h39.41m-39.41 5.34h39.41m-39.41 5.34h39.41m-39.41 5.35h39.41m-39.41 5.34h39.41m-39.41 5.35h39.41m-162.6-51.86h39.4m-39.4 14.45h39.4m-39.4 5.34h39.4m-39.4 5.35h39.4m-39.4 5.34h39.4m-39.4 5.34h39.4m-39.4 5.35h39.4m-39.4 5.34h39.4m-39.4 5.35h39.4m-50.51-79.97h-11.65v90.85h11.65V110.4Zm23.89 20.05c-.2 0-.37-.07-.51-.2-.14-.14-.2-.31-.2-.51v-4.66l-4.51-5.72c-.15-.21-.18-.42-.07-.64.11-.22.3-.33.56-.33h10.45c.26 0 .45.11.56.33.11.22.09.44-.07.64l-4.51 5.72v4.66c0 .2-.07.37-.2.51-.14.14-.31.2-.51.2h-.99Zm.5-5.8 3.98-5.07h-7.97l3.98 5.07h.01Z"/>
  <path stroke="#FFCF64" stroke-linecap="round" stroke-linejoin="round" stroke-width="2" d="M279.44 128.23c.17 0 .31-.06.43-.17.12-.12.17-.26.17-.43v-3.42c0-.17-.06-.31-.17-.43-.12-.12-.26-.17-.43-.17-.17 0-.31.06-.43.17-.12.12-.17.26-.17.43v3.42c0 .17.06.31.17.43.12.12.26.17.43.17Zm0-6c.18 0 .34-.06.46-.19s.19-.28.19-.46-.06-.34-.19-.46c-.12-.12-.28-.19-.46-.19s-.34.06-.46.19c-.12.12-.19.28-.19.46s.06.34.19.46c.12.12.28.19.46.19Zm0 9.83c-1.06 0-2.05-.2-2.98-.6-.93-.4-1.74-.95-2.43-1.63-.69-.69-1.23-1.5-1.64-2.43-.4-.93-.6-1.92-.6-2.98s.2-2.05.6-2.98c.4-.93.95-1.74 1.63-2.43.69-.69 1.5-1.23 2.43-1.64.93-.4 1.92-.6 2.98-.6s2.05.2 2.98.6c.93.4 1.74.95 2.43 1.63.69.69 1.23 1.5 1.64 2.43.4.93.6 1.92.6 2.98s-.2 2.05-.6 2.98c-.4.93-.95 1.74-1.63 2.43-.69.69-1.5 1.23-2.43 1.64-.93.4-1.92.6-2.98.6Zm0-1.21c1.8 0 3.32-.62 4.57-1.87 1.25-1.25 1.87-2.77 1.87-4.57 0-1.8-.62-3.32-1.87-4.57-1.25-1.25-2.77-1.87-4.57-1.87-1.8 0-3.32.62-4.57 1.87-1.25 1.25-1.87 2.77-1.87 4.57 0 1.8.62 3.32 1.87 4.57 1.25 1.25 2.77 1.87 4.57 1.87Zm67.84.6c-.17 0-.31-.06-.43-.17-.12-.12-.17-.26-.17-.43v-1.08c-.62-.11-1.16-.33-1.62-.66-.46-.33-.83-.79-1.1-1.38-.07-.14-.07-.29 0-.45.07-.16.18-.27.35-.34.14-.06.29-.06.44 0 .15.06.27.17.35.32.23.44.53.78.9 1.02.37.23.83.35 1.4.35s1.09-.14 1.54-.41c.44-.28.67-.72.67-1.32 0-.52-.17-.94-.5-1.25-.33-.31-1.02-.64-2.07-.97-1.1-.35-1.86-.75-2.29-1.22-.43-.46-.64-1.05-.64-1.75 0-.81.28-1.45.85-1.91.57-.46 1.14-.72 1.72-.77v-1.06c0-.17.06-.31.17-.43.12-.12.26-.17.43-.17.17 0 .31.06.43.17.12.12.17.26.17.43v1.06c.49.07.93.21 1.3.43s.69.51.94.88c.09.13.11.28.06.44-.05.16-.16.27-.33.35-.14.07-.29.07-.44.02-.15-.05-.29-.15-.42-.29-.19-.22-.42-.39-.68-.52-.27-.13-.6-.19-.99-.19-.61 0-1.09.15-1.46.44-.37.3-.55.67-.55 1.13 0 .46.19.84.57 1.12.38.28 1.08.57 2.1.88.95.29 1.66.7 2.13 1.24.47.53.7 1.18.7 1.93 0 .88-.28 1.56-.85 2.05-.57.49-1.26.77-2.07.86v1.06c0 .17-.06.31-.17.43-.12.12-.26.17-.43.17l-.01-.01Z"/>
  <path stroke="#70E076" stroke-linecap="round" stroke-linejoin="round" stroke-width="2" d="M248.74 201.05h-61.6v90.85h61.6v-90.85Z"/>
  <path stroke="#70E076" stroke-linecap="round" stroke-linejoin="round" stroke-width="2" d="M310.34 201.05h-61.6v90.85h61.6v-90.85Zm61.6 0h-61.6v90.85h61.6v-90.85Zm-112.1 28.11h39.4m-39.4 14.45h39.4m-39.4 5.34h39.4m-39.4 5.34h39.4m-39.4 5.35h39.4m-39.4 5.34h39.4m-39.4 5.35h39.4m-39.4 5.34h39.4m-39.4 5.34h39.4m22.19-51.85h39.41m-39.41 14.45h39.41m-39.41 5.34h39.41m-39.41 5.34h39.41m-39.41 5.35h39.41m-39.41 5.34h39.41m-39.41 5.35h39.41m-39.41 5.34h39.41m-39.41 5.34h39.41m-162.6-51.85h39.4m-39.4 14.45h39.4m-39.4 5.34h39.4m-39.4 5.34h39.4m-39.4 5.35h39.4m-39.4 5.34h39.4m-39.4 5.35h39.4m-39.4 5.34h39.4m-39.4 5.34h39.4m-50.51-79.96h-11.65v90.85h11.65v-90.85Zm18.04 18.79v-7.31h-.08c-.34 0-.63-.12-.87-.36s-.36-.53-.36-.87v-1.75c0-.34.12-.63.36-.87s.53-.36.87-.36h2.94c-.11-.13-.19-.28-.23-.44-.04-.16-.06-.34-.06-.52 0-.6.21-1.11.63-1.54.42-.42.93-.63 1.54-.63.31 0 .59.06.86.19.26.13.5.3.71.52.21-.22.44-.4.71-.53.26-.13.55-.19.86-.19.6 0 1.11.21 1.54.63.42.42.63.93.63 1.54 0 .18-.02.35-.07.51-.04.16-.12.31-.23.45h3.03c.34 0 .63.12.87.36s.36.53.36.87v1.75c0 .34-.12.63-.36.87s-.53.36-.87.36h-.08v7.31c0 .4-.14.74-.43 1.03-.28.28-.63.43-1.03.43h-9.78c-.4 0-.74-.14-1.03-.43-.28-.28-.43-.63-.43-1.03v.01Zm7.86-13.43c-.27 0-.5.09-.68.28-.18.19-.28.41-.28.68 0 .27.09.5.28.68.18.18.41.28.68.28.27 0 .5-.09.68-.28.18-.18.28-.41.28-.68 0-.27-.09-.5-.28-.68-.18-.18-.41-.28-.68-.28Zm-4.08.96c0 .27.09.5.28.68.18.18.41.28.68.28.27 0 .5-.09.68-.28.18-.18.28-.41.28-.68 0-.27-.09-.5-.28-.68-.18-.18-.41-.28-.68-.28-.27 0-.5.09-.68.28-.18.18-.28.41-.28.68Zm-3.87 2.17v1.78h5.84v-1.78h-5.84Zm5.83 10.54v-7.55h-4.54v7.31c0 .07.02.13.07.18.05.05.11.07.18.07h4.29v-.01Zm1.21 0h4.29c.07 0 .13-.02.18-.07.05-.05.07-.11.07-.18v-7.31h-4.54v7.56Zm5.84-8.76v-1.78h-5.84v1.78h5.84Z"/>
  <path stroke="#70E076" stroke-linecap="round" stroke-linejoin="round" stroke-width="2" d="M274.73 219.29c-.26 0-.48-.09-.66-.27-.18-.18-.27-.4-.27-.66v-2.17c0-.26.09-.48.27-.66.18-.18.4-.27.66-.27s.48.09.66.27c.18.18.27.4.27.66v2.17c0 .26-.09.48-.27.66-.18.18-.4.27-.66.27Zm4.75 0c-.26 0-.48-.09-.66-.27-.18-.18-.27-.4-.27-.66v-6.19c0-.26.09-.48.27-.66.18-.18.4-.27.66-.27s.48.09.66.27c.18.18.27.4.27.66v6.19c0 .26-.09.48-.27.66-.18.18-.4.27-.66.27Zm4.66 0c-.26 0-.48-.09-.66-.27-.18-.18-.27-.4-.27-.66v-10.22c0-.26.09-.48.27-.66.18-.18.4-.27.66-.27s.48.09.66.27c.18.18.27.4.27.66v10.22c0 .26-.09.48-.27.66-.18.18-.4.27-.66.27Zm70.32-5.42h-1.7c-.17 0-.31-.06-.43-.17-.12-.12-.17-.26-.17-.43 0-.17.06-.31.17-.43.12-.12.26-.17.43-.17h1.7c.17 0 .31.06.43.17.12.12.17.26.17.43 0 .17-.06.31-.17.43-.12.12-.26.17-.43.17Zm-3.35 3.19c.1-.14.24-.22.4-.24.16-.02.31.02.45.12l1.36 1.02c.14.1.22.24.24.4.02.16-.02.31-.12.45-.1.14-.24.22-.4.24-.16.02-.31-.02-.45-.12l-1.36-1.02c-.14-.1-.22-.24-.24-.4-.02-.16.02-.31.12-.45Zm2.18-8.52-1.36 1.02c-.14.1-.29.14-.45.12-.16-.02-.29-.1-.4-.24-.1-.14-.14-.29-.12-.45.02-.16.1-.29.24-.4l1.36-1.02c.14-.1.29-.14.45-.12.16.02.29.1.4.24.1.14.14.29.12.45-.02.16-.1.29-.24.4Zm-11.37 6.8h-.82c-.4 0-.74-.14-1.03-.43-.28-.28-.43-.63-.43-1.03v-1.24c0-.4.14-.74.43-1.03.28-.28.63-.43 1.03-.43h3.11l2.5-1.5c.24-.15.49-.15.73 0 .25.14.37.35.37.63v5.89c0 .28-.12.49-.37.63s-.49.14-.73 0l-2.5-1.5h-1.08v2.54c0 .17-.06.31-.17.43-.12.12-.26.17-.43.17-.17 0-.31-.06-.43-.17-.12-.12-.17-.26-.17-.43v-2.54l-.01.01Zm4.69.01v-4.16l-2.07 1.21h-3.45c-.06 0-.12.03-.17.08-.05.05-.08.11-.08.17v1.24c0 .06.03.12.08.17.05.05.11.08.17.08h3.45l2.07 1.21Zm2.32.43v-5.02c.32.29.57.65.76 1.08.19.43.29.91.29 1.43 0 .52-.1 1-.29 1.43-.19.43-.45.79-.76 1.08Z"/>
  <path stroke="#F2918C" stroke-linecap="round" stroke-linejoin="round" stroke-width="2" d="M248.74 19.76h-61.6v90.85h61.6V19.76Z"/>
  <path stroke="#F2918C" stroke-linecap="round" stroke-linejoin="round" stroke-width="2" d="M310.34 19.76h-61.6v90.85h61.6V19.76Zm61.6 0h-61.6v90.85h61.6V19.76Zm-112.1 28.1h39.4m-39.4 14.45h39.4m-39.4 5.34h39.4M259.84 73h39.4m-39.4 5.34h39.4m-39.4 5.35h39.4m-39.4 5.34h39.4m-39.4 5.34h39.4m-39.4 5.35h39.4m22.19-51.86h39.41m-39.41 14.45h39.41m-39.41 5.34h39.41M321.43 73h39.41m-39.41 5.34h39.41m-39.41 5.35h39.41m-39.41 5.34h39.41m-39.41 5.34h39.41m-39.41 5.35h39.41m-162.6-51.86h39.4m-39.4 14.45h39.4m-39.4 5.34h39.4M198.24 73h39.4m-39.4 5.34h39.4m-39.4 5.35h39.4m-39.4 5.34h39.4m-39.4 5.34h39.4m-39.4 5.35h39.4m-50.51-79.96h-11.65v90.85h11.65V19.76Zm24.39 20.76c-1.06 0-2.05-.2-2.98-.6-.93-.4-1.74-.95-2.43-1.63-.69-.69-1.23-1.5-1.64-2.43-.4-.93-.6-1.92-.6-2.98s.2-2.05.6-2.98c.4-.93.95-1.74 1.63-2.43.69-.69 1.5-1.23 2.43-1.64.93-.4 1.92-.6 2.98-.6s2.05.2 2.98.6c.93.4 1.74.95 2.43 1.63.69.69 1.23 1.5 1.64 2.43.4.93.6 1.92.6 2.98s-.2 2.05-.6 2.98c-.4.93-.95 1.74-1.63 2.43-.69.69-1.5 1.23-2.43 1.64-.93.4-1.92.6-2.98.6Zm0-1.21c1.8 0 3.32-.62 4.57-1.87 1.25-1.25 1.87-2.77 1.87-4.57 0-1.8-.62-3.32-1.87-4.57-1.25-1.25-2.77-1.87-4.57-1.87-1.8 0-3.32.62-4.57 1.87-1.25 1.25-1.87 2.77-1.87 4.57 0 1.8.62 3.32 1.87 4.57 1.25 1.25 2.77 1.87 4.57 1.87Zm0-2.01c-1.23 0-2.27-.43-3.14-1.29-.86-.86-1.29-1.91-1.29-3.13s.43-2.27 1.29-3.14c.86-.86 1.91-1.29 3.13-1.29s2.27.43 3.14 1.29c.86.86 1.29 1.91 1.29 3.13s-.43 2.27-1.29 3.14c-.86.86-1.91 1.29-3.13 1.29Zm0-1.21c.89 0 1.64-.32 2.27-.95.63-.63.95-1.39.95-2.27 0-.88-.32-1.64-.95-2.27-.63-.63-1.39-.95-2.27-.95-.88 0-1.64.32-2.27.95-.63.63-.95 1.39-.95 2.27 0 .88.32 1.64.95 2.27.63.63 1.39.95 2.27.95Zm0-2.01c-.33 0-.61-.12-.85-.36s-.36-.52-.36-.85c0-.33.12-.61.36-.85s.52-.36.85-.36c.33 0 .61.12.85.36s.36.52.36.85c0 .33-.12.61-.36.85s-.52.36-.85.36Z"/>
  <path stroke="#F2918C" stroke-linecap="round" stroke-linejoin="round" stroke-width="2" d="M273 36.78v-9.66m1.64 10.87-1.61 1.61c-.23.23-.49.28-.79.16-.3-.13-.45-.35-.45-.68V27.37c0-.41.14-.75.42-1.03.28-.28.63-.42 1.03-.42h12.38c.41 0 .75.14 1.03.42.28.28.42.63.42 1.03v9.16c0 .41-.14.75-.42 1.03-.28.28-.63.42-1.03.42h-10.99l.01.01Zm-.52-1.21h11.51c.06 0 .12-.03.17-.08.05-.05.08-.11.08-.17v-9.16c0-.06-.03-.12-.08-.17-.05-.05-.11-.08-.17-.08h-12.38c-.06 0-.12.03-.17.08-.05.05-.08.11-.08.17V37.9l1.13-1.11-.01-.01Zm1.29-1.81h4.83c.17 0 .31-.06.43-.17.12-.12.17-.26.17-.43 0-.17-.06-.31-.17-.43-.12-.12-.26-.17-.43-.17h-4.83c-.17 0-.31.06-.43.17-.12.12-.17.26-.17.43 0 .17.06.31.17.43.12.12.26.17.43.17Zm0-2.41h8.05c.17 0 .31-.06.43-.17.12-.12.17-.26.17-.43 0-.17-.06-.31-.17-.43-.12-.12-.26-.17-.43-.17h-8.05c-.17 0-.31.06-.43.17-.12.12-.17.26-.17.43 0 .17.06.31.17.43.12.12.26.17.43.17Zm0-2.42h8.05c.17 0 .31-.06.43-.17.12-.12.17-.26.17-.43 0-.17-.06-.31-.17-.43-.12-.12-.26-.17-.43-.17h-8.05c-.17 0-.31.06-.43.17-.12.12-.17.26-.17.43 0 .17.06.31.17.43.12.12.26.17.43.17Zm65.55 9.66c-.4 0-.74-.14-1.03-.43-.28-.28-.43-.63-.43-1.03V26.43c0-.08.04-.14.11-.17s.14-.02.2.05l.58.58c.08.08.16.11.26.11s.18-.04.26-.11l.81-.83c.08-.08.16-.11.26-.11s.18.04.26.11l.83.83c.08.08.16.11.26.11s.18-.04.26-.11l.83-.83c.08-.08.16-.11.26-.11s.18.04.26.11l.81.83c.08.08.16.11.26.11s.18-.04.26-.11l.83-.83c.08-.08.16-.11.26-.11s.18.04.26.11l.83.83c.08.08.16.11.26.11s.18-.04.26-.11l.81-.83c.08-.08.16-.11.26-.11s.18.04.26.11l.83.83c.08.08.16.11.26.11s.18-.04.26-.11l.83-.83c.08-.08.16-.11.26-.11s.18.04.26.11l.81.83c.08.08.16.11.26.11s.18-.04.26-.11l.58-.58c.06-.06.13-.08.2-.05s.11.09.11.17v11.91c0 .4-.14.74-.43 1.03-.28.28-.63.43-1.03.43h-12.8Zm0-1.21h5.79v-5.23h-6.04v4.98c0 .07.02.13.07.18.05.05.11.07.18.07Zm7 0h5.79c.07 0 .13-.02.18-.07.05-.05.07-.11.07-.18v-1.76h-6.04v2.01Zm0-3.22H354v-2.01h-6.04v2.01Zm-7.25-3.22h13.28v-2.89h-13.28v2.89Z"/>
  <path stroke="#005375" stroke-linecap="round" stroke-linejoin="round" d="M247.71 108.8h-61.6v90.85h61.6V108.8Zm61.6 0h-61.6v90.85h61.6V108.8Zm61.6 0h-61.6v90.85h61.6V108.8Zm-112.1 28.1h39.4m-39.4 14.45h39.4m-39.4 5.34h39.4m-39.4 5.35h39.4m-39.4 5.34h39.4m-39.4 5.35h39.4m-39.4 5.34h39.4m-39.4 5.34h39.4m-39.4 5.35h39.4m22.2-51.86h39.4m-39.4 14.45h39.4m-39.4 5.34h39.4m-39.4 5.35h39.4m-39.4 5.34h39.4m-39.4 5.35h39.4m-39.4 5.34h39.4m-39.4 5.34h39.4m-39.4 5.35h39.4m-162.6-51.86h39.4m-39.4 14.45h39.4m-39.4 5.34h39.4m-39.4 5.35h39.4m-39.4 5.34h39.4m-39.4 5.35h39.4m-39.4 5.34h39.4m-39.4 5.34h39.4m-39.4 5.35h39.4m-50.5-79.96h-11.65v90.85h11.65V108.8Z"/>
  <path fill="#005375" d="M210 128.84c-.2 0-.37-.07-.51-.2-.14-.14-.2-.31-.2-.51v-4.66l-4.51-5.72c-.15-.21-.18-.42-.07-.64.11-.22.3-.33.56-.33h10.45c.26 0 .45.11.56.33.11.22.09.44-.07.64l-4.51 5.72v4.66c0 .2-.07.37-.2.51-.14.14-.31.2-.51.2H210Zm.49-5.8 3.98-5.07h-7.97l3.98 5.07h.01Zm67.92 3.59c.17 0 .31-.06.43-.17.12-.12.17-.26.17-.43v-3.42c0-.17-.06-.31-.17-.43-.12-.12-.26-.17-.43-.17-.17 0-.31.06-.43.17-.12.12-.17.26-.17.43v3.42c0 .17.06.31.17.43.12.12.26.17.43.17Zm0-6.01c.18 0 .34-.06.46-.19s.19-.28.19-.46-.06-.34-.19-.46c-.12-.12-.28-.19-.46-.19s-.34.06-.46.19c-.12.12-.19.28-.19.46s.06.34.19.46c.12.12.28.19.46.19Zm0 9.83c-1.06 0-2.05-.2-2.98-.6-.93-.4-1.74-.95-2.43-1.63-.69-.69-1.23-1.5-1.64-2.43-.4-.93-.6-1.92-.6-2.98s.2-2.05.6-2.98c.4-.93.95-1.74 1.63-2.43.69-.69 1.5-1.23 2.43-1.64.93-.4 1.92-.6 2.98-.6s2.05.2 2.98.6c.93.4 1.74.95 2.43 1.63.69.69 1.23 1.5 1.64 2.43.4.93.6 1.92.6 2.98s-.2 2.05-.6 2.98c-.4.93-.95 1.74-1.63 2.43-.69.69-1.5 1.23-2.43 1.64-.93.4-1.92.6-2.98.6Zm0-1.21c1.8 0 3.32-.62 4.57-1.87 1.25-1.25 1.87-2.77 1.87-4.57 0-1.8-.62-3.32-1.87-4.57-1.25-1.25-2.77-1.87-4.57-1.87-1.8 0-3.32.62-4.57 1.87-1.25 1.25-1.87 2.77-1.87 4.57 0 1.8.62 3.32 1.87 4.57 1.25 1.25 2.77 1.87 4.57 1.87Zm67.84.61c-.17 0-.31-.06-.43-.17-.12-.12-.17-.26-.17-.43v-1.08c-.62-.11-1.16-.33-1.62-.66-.46-.33-.83-.79-1.1-1.38-.07-.14-.07-.29 0-.45.07-.16.18-.27.35-.34.14-.06.29-.06.44 0 .15.06.27.17.35.32.23.44.53.78.9 1.02.37.23.83.35 1.4.35s1.09-.14 1.54-.41c.44-.28.67-.72.67-1.32 0-.52-.17-.94-.5-1.25-.33-.31-1.02-.64-2.07-.97-1.1-.35-1.86-.75-2.29-1.22-.43-.46-.64-1.05-.64-1.75 0-.81.28-1.45.85-1.91.57-.46 1.14-.72 1.72-.77v-1.06c0-.17.06-.31.17-.43.12-.12.26-.17.43-.17.17 0 .31.06.43.17.12.12.17.26.17.43v1.06c.49.07.93.21 1.3.43s.69.51.94.88c.09.13.11.28.06.44-.05.16-.16.27-.33.35-.14.07-.29.07-.44.02-.15-.05-.29-.15-.42-.29-.19-.22-.42-.39-.68-.52-.27-.13-.6-.19-.99-.19-.61 0-1.09.15-1.46.44-.37.3-.55.67-.55 1.13 0 .46.19.84.57 1.12.38.28 1.08.57 2.1.88.95.29 1.66.7 2.13 1.24.47.53.7 1.18.7 1.93 0 .88-.28 1.56-.85 2.05-.57.49-1.26.77-2.07.86v1.06c0 .17-.06.31-.17.43-.12.12-.26.17-.43.17l-.01-.01Z"/>
  <path stroke="#005375" stroke-linecap="round" stroke-linejoin="round" d="M247.71 199.45h-61.6v90.85h61.6v-90.85Zm61.6 0h-61.6v90.85h61.6v-90.85Zm61.6 0h-61.6v90.85h61.6v-90.85Zm-112.1 28.1h39.4M258.81 242h39.4m-39.4 5.34h39.4m-39.4 5.35h39.4m-39.4 5.34h39.4m-39.4 5.34h39.4m-39.4 5.35h39.4m-39.4 5.34h39.4m-39.4 5.35h39.4m22.2-51.86h39.4M320.41 242h39.4m-39.4 5.34h39.4m-39.4 5.35h39.4m-39.4 5.34h39.4m-39.4 5.34h39.4m-39.4 5.35h39.4m-39.4 5.34h39.4m-39.4 5.35h39.4m-162.6-51.86h39.4M197.21 242h39.4m-39.4 5.34h39.4m-39.4 5.35h39.4m-39.4 5.34h39.4m-39.4 5.34h39.4m-39.4 5.35h39.4m-39.4 5.34h39.4m-39.4 5.35h39.4m-50.5-79.96h-11.65v90.85h11.65v-90.85Z"/>
  <path fill="#005375" d="M204.14 218.23v-7.31h-.08c-.34 0-.63-.12-.87-.36s-.36-.53-.36-.87v-1.75c0-.34.12-.63.36-.87s.53-.36.87-.36H207c-.11-.13-.19-.28-.23-.44-.04-.16-.06-.34-.06-.52 0-.6.21-1.11.63-1.54.42-.42.93-.63 1.54-.63.31 0 .59.06.86.19.26.13.5.3.71.52.21-.22.44-.4.71-.53.26-.13.55-.19.86-.19.6 0 1.11.21 1.54.63.42.42.63.93.63 1.54 0 .18-.02.35-.07.51-.04.16-.12.31-.23.45h3.03c.34 0 .63.12.87.36s.36.53.36.87v1.75c0 .34-.12.63-.36.87s-.53.36-.87.36h-.08v7.31c0 .4-.14.74-.43 1.03-.28.28-.63.43-1.03.43h-9.78c-.4 0-.74-.14-1.03-.43-.28-.28-.43-.63-.43-1.03v.01Zm7.87-13.42c-.27 0-.5.09-.68.28-.18.19-.28.41-.28.68 0 .27.09.5.28.68.18.18.41.28.68.28.27 0 .5-.09.68-.28.18-.18.28-.41.28-.68 0-.27-.09-.5-.28-.68-.18-.18-.41-.28-.68-.28Zm-4.09.96c0 .27.09.5.28.68.18.18.41.28.68.28.27 0 .5-.09.68-.28.18-.18.28-.41.28-.68 0-.27-.09-.5-.28-.68-.18-.18-.41-.28-.68-.28-.27 0-.5.09-.68.28-.18.18-.28.41-.28.68Zm-3.87 2.16v1.78h5.84v-1.78h-5.84Zm5.84 10.55v-7.55h-4.54v7.31c0 .07.02.13.07.18.05.05.11.07.18.07h4.29v-.01Zm1.2 0h4.29c.07 0 .13-.02.18-.07.05-.05.07-.11.07-.18v-7.31h-4.54v7.56Zm5.84-8.77v-1.78h-5.84v1.78h5.84Zm56.77 7.97c-.26 0-.48-.09-.66-.27-.18-.18-.27-.4-.27-.66v-2.17c0-.26.09-.48.27-.66.18-.18.4-.27.66-.27s.48.09.66.27c.18.18.27.4.27.66v2.17c0 .26-.09.48-.27.66-.18.18-.4.27-.66.27Zm4.76 0c-.26 0-.48-.09-.66-.27-.18-.18-.27-.4-.27-.66v-6.19c0-.26.09-.48.27-.66.18-.18.4-.27.66-.27s.48.09.66.27c.18.18.27.4.27.66v6.19c0 .26-.09.48-.27.66-.18.18-.4.27-.66.27Zm4.66 0c-.26 0-.48-.09-.66-.27-.18-.18-.27-.4-.27-.66v-10.22c0-.26.09-.48.27-.66.18-.18.4-.27.66-.27s.48.09.66.27c.18.18.27.4.27.66v10.22c0 .26-.09.48-.27.66-.18.18-.4.27-.66.27Zm70.32-5.42h-1.7c-.17 0-.31-.06-.43-.17-.12-.12-.17-.26-.17-.43 0-.17.06-.31.17-.43.12-.12.26-.17.43-.17h1.7c.17 0 .31.06.43.17.12.12.17.26.17.43 0 .17-.06.31-.17.43-.12.12-.26.17-.43.17Zm-3.35 3.19c.1-.14.24-.22.4-.24.16-.02.31.02.45.12l1.36 1.02c.14.1.22.24.24.4.02.16-.02.31-.12.45-.1.14-.24.22-.4.24-.16.02-.31-.02-.45-.12l-1.36-1.02c-.14-.1-.22-.24-.24-.4-.02-.16.02-.31.12-.45Zm2.17-8.52-1.36 1.02c-.14.1-.29.14-.45.12-.16-.02-.29-.1-.4-.24-.1-.14-.14-.29-.12-.45.02-.16.1-.29.24-.4l1.36-1.02c.14-.1.29-.14.45-.12.16.02.29.1.4.24.1.14.14.29.12.45-.02.16-.1.29-.24.4Zm-11.36 6.8h-.82c-.4 0-.74-.14-1.03-.43-.28-.28-.43-.63-.43-1.03v-1.24c0-.4.14-.74.43-1.03.28-.28.63-.43 1.03-.43h3.11l2.5-1.5c.24-.15.49-.15.73 0 .25.14.37.35.37.63v5.89c0 .28-.12.49-.37.63s-.49.14-.73 0l-2.5-1.5h-1.08v2.54c0 .17-.06.31-.17.43-.12.12-.26.17-.43.17-.17 0-.31-.06-.43-.17-.12-.12-.17-.26-.17-.43v-2.54l-.01.01Zm4.69.01v-4.16l-2.07 1.21h-3.45c-.06 0-.12.03-.17.08-.05.05-.08.11-.08.17v1.24c0 .06.03.12.08.17.05.05.11.08.17.08h3.45l2.07 1.21Zm2.32.43v-5.02c.32.29.57.65.76 1.08.19.43.29.91.29 1.43 0 .52-.1 1-.29 1.43-.19.43-.45.79-.76 1.08Z"/>
  <path stroke="#005375" stroke-linecap="round" stroke-linejoin="round" d="M247.71 18.15h-61.6V109h61.6V18.15Zm61.6 0h-61.6V109h61.6V18.15Zm61.6 0h-61.6V109h61.6V18.15Zm-112.1 28.1h39.4m-39.4 14.45h39.4m-39.4 5.35h39.4m-39.4 5.34h39.4m-39.4 5.34h39.4m-39.4 5.35h39.4m-39.4 5.34h39.4m-39.4 5.35h39.4m-39.4 5.34h39.4m22.2-51.86h39.4m-39.4 14.45h39.4m-39.4 5.35h39.4m-39.4 5.34h39.4m-39.4 5.34h39.4m-39.4 5.35h39.4m-39.4 5.34h39.4m-39.4 5.35h39.4m-39.4 5.34h39.4m-162.6-51.86h39.4m-39.4 14.45h39.4m-39.4 5.35h39.4m-39.4 5.34h39.4m-39.4 5.34h39.4m-39.4 5.35h39.4m-39.4 5.34h39.4m-39.4 5.35h39.4m-39.4 5.34h39.4m-50.5-79.96h-11.65V109h11.65V18.15Z"/>
  <path fill="#005375" d="M210.49 38.91c-1.06 0-2.05-.2-2.98-.6-.93-.4-1.74-.95-2.43-1.63-.69-.69-1.23-1.5-1.64-2.43-.4-.93-.6-1.92-.6-2.98s.2-2.05.6-2.98c.4-.93.95-1.74 1.63-2.43.69-.69 1.5-1.23 2.43-1.64.93-.4 1.92-.6 2.98-.6s2.05.2 2.98.6c.93.4 1.74.95 2.43 1.63.69.69 1.23 1.5 1.64 2.43.4.93.6 1.92.6 2.98s-.2 2.05-.6 2.98c-.4.93-.95 1.74-1.63 2.43-.69.69-1.5 1.23-2.43 1.64-.93.4-1.92.6-2.98.6Zm0-1.21c1.8 0 3.32-.62 4.57-1.87 1.25-1.25 1.87-2.77 1.87-4.57 0-1.8-.62-3.32-1.87-4.57-1.25-1.25-2.77-1.87-4.57-1.87-1.8 0-3.32.62-4.57 1.87-1.25 1.25-1.87 2.77-1.87 4.57 0 1.8.62 3.32 1.87 4.57 1.25 1.25 2.77 1.87 4.57 1.87Zm0-2.01c-1.23 0-2.27-.43-3.14-1.29-.86-.86-1.29-1.91-1.29-3.13s.43-2.27 1.29-3.14c.86-.86 1.91-1.29 3.13-1.29s2.27.43 3.14 1.29c.86.86 1.29 1.91 1.29 3.13s-.43 2.27-1.29 3.14c-.86.86-1.91 1.29-3.13 1.29Zm0-1.21c.89 0 1.64-.32 2.27-.95.63-.63.95-1.39.95-2.27 0-.88-.32-1.64-.95-2.27-.63-.63-1.39-.95-2.27-.95-.88 0-1.64.32-2.27.95-.63.63-.95 1.39-.95 2.27 0 .88.32 1.64.95 2.27.63.63 1.39.95 2.27.95Zm0-2.01c-.33 0-.61-.12-.85-.36s-.36-.52-.36-.85c0-.33.12-.61.36-.85s.52-.36.85-.36c.33 0 .61.12.85.36s.36.52.36.85c0 .33-.12.61-.36.85s-.52.36-.85.36Zm63.12 3.91L272 37.99c-.23.23-.49.28-.79.16-.3-.13-.45-.35-.45-.68V25.76c0-.41.14-.75.42-1.03.28-.28.63-.42 1.03-.42h12.38c.41 0 .75.14 1.03.42.28.28.42.63.42 1.03v9.16c0 .41-.14.75-.42 1.03-.28.28-.63.42-1.03.42H273.6l.01.01Zm-.51-1.2h11.51c.06 0 .12-.03.17-.08.05-.05.08-.11.08-.17v-9.16c0-.06-.03-.12-.08-.17-.05-.05-.11-.08-.17-.08h-12.38c-.06 0-.12.03-.17.08-.05.05-.08.11-.08.17V36.3l1.13-1.11-.01-.01Zm1.29-1.81h4.83c.17 0 .31-.06.43-.17.12-.12.17-.26.17-.43 0-.17-.06-.31-.17-.43-.12-.12-.26-.17-.43-.17h-4.83c-.17 0-.31.06-.43.17-.12.12-.17.26-.17.43 0 .17.06.31.17.43.12.12.26.17.43.17Zm0-2.42h8.05c.17 0 .31-.06.43-.17.12-.12.17-.26.17-.43 0-.17-.06-.31-.17-.43-.12-.12-.26-.17-.43-.17h-8.05c-.17 0-.31.06-.43.17-.12.12-.17.26-.17.43 0 .17.06.31.17.43.12.12.26.17.43.17Zm0-2.41h8.05c.17 0 .31-.06.43-.17.12-.12.17-.26.17-.43 0-.17-.06-.31-.17-.43-.12-.12-.26-.17-.43-.17h-8.05c-.17 0-.31.06-.43.17-.12.12-.17.26-.17.43 0 .17.06.31.17.43.12.12.26.17.43.17Zm65.55 9.65c-.4 0-.74-.14-1.03-.43-.28-.28-.43-.63-.43-1.03V24.82c0-.08.04-.14.11-.17s.14-.02.2.05l.58.58c.08.08.16.11.26.11s.18-.04.26-.11l.81-.83c.08-.08.16-.11.26-.11s.18.04.26.11l.83.83c.08.08.16.11.26.11s.18-.04.26-.11l.83-.83c.08-.08.16-.11.26-.11s.18.04.26.11l.81.83c.08.08.16.11.26.11s.18-.04.26-.11l.83-.83c.08-.08.16-.11.26-.11s.18.04.26.11l.83.83c.08.08.16.11.26.11s.18-.04.26-.11l.81-.83c.08-.08.16-.11.26-.11s.18.04.26.11l.83.83c.08.08.16.11.26.11s.18-.04.26-.11l.83-.83c.08-.08.16-.11.26-.11s.18.04.26.11l.81.83c.08.08.16.11.26.11s.18-.04.26-.11l.58-.58c.06-.06.13-.08.2-.05s.11.09.11.17v11.91c0 .4-.14.74-.43 1.03-.28.28-.63.43-1.03.43h-12.8Zm0-1.21h5.79v-5.23h-6.04v4.98c0 .07.02.13.07.18.05.05.11.07.18.07Zm6.99 0h5.79c.07 0 .13-.02.18-.07.05-.05.07-.11.07-.18v-1.76h-6.04v2.01Zm0-3.22h6.04v-2.01h-6.04v2.01Zm-7.24-3.22h13.28v-2.89h-13.28v2.89Z"/>
</svg>
